<?xml version="1.0" encoding="UTF-8"?> <svg xmlns="http://www.w3.org/2000/svg" xmlns:xlink="http://www.w3.org/1999/xlink" version="1.1" id="Layer_1" x="0px" y="0px" viewBox="0 0 3600 3600" style="enable-background:new 0 0 3600 3600;" xml:space="preserve"> <style type="text/css"> .st0{fill:#E73D3D;} .st1{fill:#E6E23B;} .st2{fill:#FDC831;} .st3{fill:#FFFFFF;} .st4{fill:#443521;} </style> <path class="st0" d="M2324.12,2886.05c-143.92-16.86-249.18-152.44-222.23-295.83c27.43-146,171.44-234.03,308.33-199.37 c54.77,13.87,97.63,43.24,135.96,82.17c14.3,24.69,0.14,49.2-5.09,71.28c-24.13,101.87-68.23,194.66-137,275.1 c-17.28,20.21-37.41,37.35-54.53,57.33C2341.74,2885.83,2332.79,2883.67,2324.12,2886.05z"></path> <path class="st0" d="M657.91,2395.23c48.11-8.83,95.72-11.43,144.75-2.36c72.82,13.47,154.98,88.68,175.86,160.67 c28.91,99.69,6.68,185.95-60.17,262.88c-6.5-0.38-10.03,4.26-14.1,8.18c-38.16,36.75-86.72,50.61-136.49,61.79 c-27.51-5.98-44.77-28.19-61.7-46.22c-69.21-73.75-117.87-160.83-145.66-257.85c-9.88-34.49-24.25-70.32-15-108.3 C577.03,2439.37,615.3,2414.21,657.91,2395.23z"></path> <path class="st1" d="M3092.2,1276.89c-51.59-73.96-116.55-135.14-184.71-193.3c-8.75-7.46-18.54-8.38-29.31-7.85 c-74.32,3.65-148.3,11.37-219.95,31.53c-185.25,52.11-356.86,130.79-499.43,263.93c-16.77,15.66-35.75,18.99-54.5,5.85 c-18.89-13.24-24.03-33.18-11.32-52.59c9.81-14.97,3.07-19.05-8.53-24.95c-46.71-23.77-94.66-44.36-145.22-58.56 c-181.93-51.09-367.11-62.66-554.46-44.08c-84.35,8.37-167.72,23.13-248.73,49.03c-11.23,3.59-23.6,4.17-22.51,22.8 c1.24,21.24-10.99,36.68-32.5,40.66c-24.21,4.47-38.68-7.96-48.53-29.97c-82.86-185.15-193.46-353.1-319.86-511.03 c-73.79-92.19-154.02-178.6-239.25-260.37c-9.78-9.38-16.97-19.5-30.57-1.86c-51.3,66.51-96.47,136.51-129.5,213.96 c-23.55,40.3-34.36,77.57-13.09,126.94c105.88,245.67,277.53,432.47,500.64,575.3c9.63,6.16,18.88,12.37,26.91,20.44 c10.28,47.02-6.51,65.09-55.18,59.41c-13.6-12.18-18.01,1.57-23.53,9.01c-23.9,32.18-41.24,67.9-59.51,103.65 c-21.46,41.98-34.8,62.44-44.9,84.86c-9.74,21.62-15.16,152.92-15.68,175.94c-0.38,17.02-3.53,33.98-5.45,50.97 c-13.89,122.84-30.98,245.05-66.99,363.87c-18.22,60.13-19.42,121.63-11.13,183.54c31.62-34.64,69.89-59.81,112.5-78.78c0,0,0,0,0,0 c48.11-8.83,95.72-11.43,144.75-2.36c72.82,13.47,154.98,88.68,175.86,160.67c28.91,99.69,6.68,185.95-60.17,262.88 c-6.5-0.38-10.03,4.26-14.09,8.18c-38.16,36.75-86.72,50.61-136.49,61.79c11.67,14.19,27.45,23.3,42.3,33.4 c68.54,46.61,140.99,86.41,216.13,121.19c150.36,69.59,306.22,120.24,472.99,129.17c180.75,9.68,350.58-36.39,514.79-106.8 c97.83-41.95,193.1-89.08,278.53-153.75c12.17-5.65,22.52-13.76,31.61-23.55c-143.92-16.86-249.18-152.44-222.23-295.83 c27.43-146,171.44-234.03,308.33-199.37c54.77,13.87,97.63,43.24,135.96,82.17c7.53-60.94,6.29-121.19-11.2-180.73 c-30.07-102.38-48.75-207.01-60.9-312.96c-10.4-90.65-21.8-181.2-41.22-270.51c-3.15-14.47-5.45-25.23-26.95-22.27 c-44.86,6.18-61.69-19.2-45.14-63.37c11.98-9.98,25.81-14.68,41.13-17.97c235.72-50.77,460.46-132.12,674.35-243.36 C3137.14,1330.17,3137.06,1330.02,3092.2,1276.89z M664.7,2101.31c-7.68,27.52-14.7,55.05-20.05,82.71 C650,2156.36,657.01,2128.83,664.7,2101.31c4.16-14.91,8.01-29.88,11.6-44.9C672.71,2071.44,668.86,2086.4,664.7,2101.31z M688.66,1999.09c-1.77,9.09-3.62,18.17-5.56,27.23C685.05,2017.26,686.89,2008.18,688.66,1999.09z M761.33,1531.02 c-17.55,81.4-31.88,163.3-41.05,246.17c-1.13,10.23-2.28,20.46-3.45,30.68c1.18-10.22,2.32-20.45,3.45-30.68 C729.45,1694.32,743.79,1612.42,761.33,1531.02c1.88-8.71,6.16-16.91,9.77-25.25C767.49,1514.11,763.21,1522.3,761.33,1531.02z M1564.9,2240.5c52.26,1.12,84.07,24.76,83.19,61.81c-0.95,39.84-46.67,81.43-88.62,80.63c-41.8-0.79-86.89-44.18-86.6-83.33 C1473.13,2262.9,1509.85,2239.32,1564.9,2240.5z M994.74,2289.37c-89.5-0.97-163.5-75.9-162.52-164.55 c1-89.48,75.93-163.66,164.57-162.91c91.26,0.77,164.63,75.41,163.53,166.37C1159.25,2217.67,1084.55,2290.34,994.74,2289.37z M1906.57,2481.07c-14.61,17.93-32.3,33.18-53.9,41.13c-21.74,8-25.79,22.31-26.92,43.28c-5.04,93.56-18.75,185.73-63.17,269.87 c-40.77,77.21-99.19,131.98-192.17,137.25c-4.74,0.27-9.5,0.03-14.26,0.03c-70.72-2.06-125.18-34.4-167.15-89.82 c-61.02-80.58-77.96-175.86-90.69-272.5c-0.37-2.82-0.61-5.71-0.47-8.54c2.09-41.68-4.03-77.75-51.51-93.38 c-12.37-4.07-22.42-17.33-31.73-27.95c-10.84-12.36-11.01-26.57,1.83-38.05c12.71-11.36,25.73-9.38,38.16,1.94 c65.37,59.51,141.85,67.47,223.81,46.64c22.38-5.69,41.42-17.4,55.68-37.24c14.34-19.95,37.54-22.12,50.45-4.07 c32.49,45.41,80.82,52.4,129.47,51.53c56.68-1.01,111.55-13.18,153.52-57.24c11.52-12.09,25.7-12.92,38.09-1.25 C1918.13,2454.46,1916.85,2468.45,1906.57,2481.07z M2124.08,2289.81c-88.45,0.24-162.72-74.89-162.62-164.5 c0.1-89,74.83-163.52,163.83-163.37c89.3,0.15,163.5,73.76,164.43,163.11C2290.65,2214.68,2215.37,2289.57,2124.08,2289.81z"></path> <path class="st2" d="M3255.69,1378.3c-2.53-2.22-4.28-3.75-6.02-5.28c1.64-1.64,3.19-4.46,4.93-4.59c1.81-0.13,3.81,2.35,5.73,3.69 C3258.96,1373.96,3257.59,1375.78,3255.69,1378.3z"></path> <path class="st0" d="M1556.62,2633.86c83.13-0.05,136.49,38.23,172.56,104.33c5.83,10.68,7.47,21.77,2.57,32.9 c-19.65,44.58-41.76,87.05-83.01,116.83c-73.64,53.15-167.07,32.4-221.25-44.88c-11.81-16.85-20.26-36.45-30.38-54.51 c-14.31-25.54-10.17-45.8,4.9-68.12C1440.47,2663.45,1492.76,2633.12,1556.62,2633.86z"></path> <path class="st3" d="M1080.83,2070.86c0.41,37.91-29.69,69.68-67.17,70.91c-38.24,1.25-70.99-30.99-70.91-69.8 c0.08-38.2,30.22-68.64,68.3-69.01C1048.72,2002.6,1080.43,2033.46,1080.83,2070.86z"></path> <path class="st3" d="M2179.06,2071.61c0.18,39.35-31.4,70.72-70.45,69.97c-36.69-0.71-68.2-33.51-67.65-70.43 c0.56-37.71,31.49-68.09,69.49-68.26C2148,2002.72,2178.88,2033.65,2179.06,2071.61z"></path> <g> <path class="st4" d="M3486.09,1147.18c-5.72-37.53-28.95-60.21-64.85-71.84c-133.71-43.32-270.48-70.43-410.81-79.39 c-304.28-19.42-576.45,69.23-822.65,244.62c-13.24,9.43-22.87,11.1-37.63,2.38c-59.16-34.93-121.79-62.89-188.2-80.61 c-289.04-77.12-577.43-76.7-864.52,10.57c-15.15,4.61-22.54,3.51-30.74-12.18C871.43,786.7,601.01,476.94,263.63,224.48 c-29.18-21.83-58.79-30.77-92.71-13.86c-34.37,17.13-48.79,46.4-48.91,83.71c-0.1,29.43-0.05,58.86-0.07,88.29 c3.96,45.92,7.92,91.84,11.88,137.75c0-0.01-0.24,0.91-0.24,0.91c13.3,62.06,21.72,124.99,36.75,186.81 c67.89,279.17,225.74,499.49,443.07,681.32c19.67,16.45,39.79,32.59,61.09,46.8c16.01,10.68,14.93,18.95,4.11,33.04 c-17.93,23.36-33.1,48.46-46.41,74.59c-48.44,79.5-69.65,171.22-79.87,262.87c-2.76,24.74-4.6,49.58-5.89,74.44 c-0.08,1.58-0.03,3.14,0.12,4.7c-8.41,58.86-15.9,117.86-23.92,176.78c-9.63,70.77-28.49,139.45-45.45,208.69 c-47.52,194.01-0.42,370.8,105.56,534.78c74.51,115.29,183.68,190.4,301.94,254.71c171.9,93.47,352.07,162.39,547.6,185.6 c157.64,18.71,311.15-3.22,461.57-50.97c167.05-53.03,322.88-128.84,465.34-231.25c19.97-14.36,38.1-31.27,57.08-47 c58.27-59.35,108.96-124.31,143.92-200.21c71.05-154.23,95.86-312.39,45.6-479.06c-29.63-98.27-46.26-199.59-51.98-302.37 c-9.13-57.96-17.98-115.96-27.52-173.85c-4.01-24.33-7.72-48.93-14.79-72.45c-6.09-20.28,1.7-26.07,19.52-30.71 c253.48-65.98,493.15-165.11,717.85-299.98c3.98-2.39,8.67-3.62,13.03-5.38c60.77-40.74,121.31-81.83,182.41-122.07 C3474.95,1210.92,3491.74,1184.23,3486.09,1147.18z M3076.23,1361.85c-213.89,111.24-438.63,192.59-674.35,243.36 c-15.32,3.3-29.15,8-41.13,17.97c-16.55,44.17,0.28,69.55,45.14,63.37c21.5-2.96,23.8,7.8,26.95,22.27 c19.42,89.3,30.82,179.86,41.22,270.51c12.16,105.95,30.83,210.58,60.9,312.96c17.49,59.54,18.73,119.79,11.21,180.73 c14.3,24.69,0.13,49.2-5.1,71.27c-24.13,101.87-68.23,194.66-137,275.1c-17.28,20.21-37.41,37.35-54.53,57.33 c-7.81,9.11-16.77,6.95-25.43,9.33c-9.09,9.79-19.44,17.91-31.62,23.56c-85.42,64.66-180.69,111.79-278.52,153.75 c-164.21,70.42-334.04,116.48-514.79,106.8c-166.77-8.93-322.63-59.58-472.99-129.17c-75.15-34.78-147.59-74.58-216.13-121.19 c-14.85-10.1-30.63-19.21-42.3-33.4c-27.51-5.98-44.77-28.19-61.7-46.22c-69.21-73.75-117.87-160.83-145.66-257.85 c-9.88-34.49-24.25-70.32-15-108.3c-8.29-61.91-7.09-123.41,11.13-183.54c36.01-118.82,53.09-241.03,66.99-363.87 c1.92-16.99,5.07-33.95,5.45-50.97c0.08-3.56-0.13-6.93-0.63-10.11c1.56-25.06,3.77-50.08,6.95-74.99c0.96-6.79,2-13.57,3.13-20.33 c3.59-3.46,24.23-102.63,35.27-130.05c5.94-6.14,11.27-14.58,15.87-25.32c15.79-36.91,35.61-71.47,59.51-103.65 c5.52-7.44,9.93-21.19,23.53-9.01c48.67,5.68,65.46-12.4,55.17-59.42c-8.02-8.06-17.28-14.27-26.91-20.43 C577.75,1279.5,406.1,1092.7,300.22,847.03c-21.28-49.37-10.46-86.64,13.09-126.94c33.03-77.45,78.2-147.45,129.5-213.96 c13.6-17.64,20.8-7.52,30.57,1.86c85.23,81.77,165.46,168.17,239.25,260.37c126.4,157.92,237,325.88,319.86,511.03 c9.85,22.01,24.31,34.44,48.53,29.97c21.51-3.97,33.74-19.42,32.5-40.66c-1.09-18.63,11.28-19.21,22.51-22.8 c81.02-25.9,164.38-40.66,248.73-49.03c187.35-18.59,372.54-7.01,554.46,44.08c50.57,14.2,98.51,34.79,145.22,58.56 c11.6,5.9,18.33,9.98,8.53,24.95c-12.71,19.41-7.58,39.35,11.32,52.59c18.76,13.14,37.73,9.81,54.5-5.85 c142.57-133.14,314.18-211.81,499.43-263.93c71.66-20.16,145.64-27.88,219.95-31.53c10.76-0.53,20.56,0.39,29.3,7.85 c68.17,58.16,133.13,119.34,184.72,193.3C3137.06,1330.02,3137.14,1330.17,3076.23,1361.85z"></path> <path class="st4" d="M1905.62,2442.68c-12.39-11.67-26.57-10.84-38.09,1.25c-41.97,44.06-96.84,56.23-153.52,57.24 c-48.65,0.87-96.97-6.13-129.47-51.53c-12.92-18.05-36.11-15.88-50.45,4.07c-14.26,19.84-33.3,31.56-55.68,37.24 c-81.96,20.83-158.44,12.88-223.81-46.64c-12.43-11.32-25.45-13.3-38.16-1.94c-12.84,11.48-12.67,25.69-1.83,38.05 c9.31,10.62,19.36,23.88,31.73,27.95c47.48,15.63,53.6,51.7,51.51,93.38c-0.14,2.83,0.1,5.72,0.47,8.54 c12.73,96.65,29.67,191.92,90.69,272.5c41.97,55.42,96.43,87.76,167.14,89.84c4.76-0.01,9.53,0.22,14.27-0.05 c92.98-5.26,151.41-60.03,192.17-137.25c44.42-84.14,58.13-176.31,63.17-269.87c1.13-20.97,5.18-35.28,26.92-43.28 c21.59-7.95,39.29-23.2,53.9-41.13C1916.85,2468.45,1918.13,2454.46,1905.62,2442.68z M1731.75,2771.09 c-19.65,44.58-41.76,87.05-83.01,116.83c-73.64,53.15-167.07,32.4-221.25-44.88c-11.81-16.85-20.26-36.45-30.38-54.51 c-14.31-25.54-10.17-45.8,4.9-68.12c38.47-56.96,90.76-87.29,154.62-86.55c83.13-0.05,136.49,38.23,172.56,104.33 C1735.01,2748.87,1736.65,2759.97,1731.75,2771.09z"></path> <path class="st4" d="M996.79,1961.91c-88.64-0.75-163.58,73.44-164.57,162.91c-0.99,88.66,73.02,163.59,162.52,164.55 c89.82,0.97,164.51-71.7,165.59-161.09C1161.42,2037.32,1088.05,1962.68,996.79,1961.91z M1013.67,2141.77 c-38.24,1.25-70.99-30.99-70.91-69.8c0.08-38.2,30.22-68.64,68.3-69.01c37.66-0.36,69.37,30.5,69.77,67.9 C1081.24,2108.77,1051.14,2140.54,1013.67,2141.77z"></path> <path class="st4" d="M2125.29,1961.94c-89-0.15-163.73,74.37-163.83,163.37c-0.1,89.61,74.17,164.74,162.62,164.5 c91.29-0.24,166.57-75.13,165.64-164.75C2288.79,2035.7,2214.59,1962.1,2125.29,1961.94z M2108.61,2141.58 c-36.69-0.71-68.2-33.51-67.65-70.43c0.56-37.71,31.49-68.09,69.49-68.26c37.54-0.17,68.42,30.76,68.6,68.72 C2179.24,2110.96,2147.65,2142.33,2108.61,2141.58z"></path> <path class="st4" d="M1559.46,2382.94c41.96,0.8,87.67-40.79,88.62-80.63c0.89-37.05-30.93-60.69-83.19-61.81 c-55.05-1.18-91.76,22.4-92.04,59.12C1472.58,2338.76,1517.66,2382.15,1559.46,2382.94z"></path> </g> </svg> 